<svg xmlns="http://www.w3.org/2000/svg" xmlns:xlink="http://www.w3.org/1999/xlink" version="1.1" width="30" height="30" viewBox="0 0 256 256" xml:space="preserve">

<defs>
</defs>
<g style="stroke: none; stroke-width: 0; stroke-dasharray: none; stroke-linecap: butt; stroke-linejoin: miter; stroke-miterlimit: 10; fill: none; fill-rule: nonzero; opacity: 1;" transform="translate(1.4065934065934016 1.4065934065934016) scale(2.81 2.81)" >
	<path d="M 79.803 66.106 c -3.105 0 -5.632 -2.526 -5.632 -5.632 s 2.526 -5.632 5.632 -5.632 s 5.632 2.526 5.632 5.632 S 82.908 66.106 79.803 66.106 z M 79.803 56.843 c -2.003 0 -3.632 1.629 -3.632 3.632 s 1.629 3.632 3.632 3.632 s 3.632 -1.629 3.632 -3.632 S 81.806 56.843 79.803 56.843 z" style="stroke: none; stroke-width: 1; stroke-dasharray: none; stroke-linecap: butt; stroke-linejoin: miter; stroke-miterlimit: 10; fill: rgb(255,255,255); fill-rule: nonzero; opacity: 1;" transform=" matrix(1 0 0 1 0 0) " stroke-linecap="round" />
	<path d="M 69.825 62.624 c -0.121 0 -0.243 -0.013 -0.364 -0.038 c -0.629 -0.136 -1.115 -0.605 -1.269 -1.228 c -0.746 -3.013 -0.224 -6.135 1.472 -8.791 c 2.519 -3.947 7.46 -5.925 12.018 -4.818 c 3.329 0.813 6.073 3.035 7.53 6.096 c 0.276 0.58 0.197 1.255 -0.206 1.76 c -0.409 0.513 -1.061 0.743 -1.7 0.598 c -6.008 -1.354 -12.346 0.913 -16.148 5.771 C 70.829 62.392 70.34 62.624 69.825 62.624 z M 79.104 49.441 c -3.074 0 -6.072 1.566 -7.755 4.202 c -1.275 1.999 -1.746 4.314 -1.353 6.586 c 4.171 -4.94 10.759 -7.289 17.104 -6.111 c -1.254 -2.212 -3.369 -3.81 -5.894 -4.426 C 80.513 49.522 79.806 49.441 79.104 49.441 z M 87.405 54.703 L 87.405 54.703 L 87.405 54.703 L 87.405 54.703 z" style="stroke: none; stroke-width: 1; stroke-dasharray: none; stroke-linecap: butt; stroke-linejoin: miter; stroke-miterlimit: 10; fill: rgb(255,255,255); fill-rule: nonzero; opacity: 1;" transform=" matrix(1 0 0 1 0 0) " stroke-linecap="round" />
	<path d="M 48.123 42.327 H 24.565 c -2.713 0 -4.92 -2.207 -4.92 -4.92 V 24.249 c 0 -2.713 2.207 -4.92 4.92 -4.92 h 18.638 c 2.713 0 4.92 2.207 4.92 4.92 V 42.327 z M 24.565 21.329 c -1.61 0 -2.92 1.31 -2.92 2.92 v 13.158 c 0 1.61 1.31 2.92 2.92 2.92 h 21.558 V 24.249 c 0 -1.61 -1.31 -2.92 -2.92 -2.92 H 24.565 z" style="stroke: none; stroke-width: 1; stroke-dasharray: none; stroke-linecap: butt; stroke-linejoin: miter; stroke-miterlimit: 10; fill: rgb(255,255,255); fill-rule: nonzero; opacity: 1;" transform=" matrix(1 0 0 1 0 0) " stroke-linecap="round" />
	<path d="M 75.003 36.555 h -0.642 c -3.158 0 -5.728 -2.569 -5.728 -5.728 s 2.569 -5.728 5.728 -5.728 h 0.642 c 1.331 0 2.414 1.083 2.414 2.414 v 6.627 C 77.417 35.472 76.334 36.555 75.003 36.555 z M 74.361 27.1 c -2.056 0 -3.728 1.672 -3.728 3.728 s 1.672 3.728 3.728 3.728 h 0.642 c 0.229 0 0.414 -0.186 0.414 -0.414 v -6.627 c 0 -0.229 -0.186 -0.414 -0.414 -0.414 H 74.361 z" style="stroke: none; stroke-width: 1; stroke-dasharray: none; stroke-linecap: butt; stroke-linejoin: miter; stroke-miterlimit: 10; fill: rgb(255,255,255); fill-rule: nonzero; opacity: 1;" transform=" matrix(1 0 0 1 0 0) " stroke-linecap="round" />
	<path d="M 66.099 28.518 c -0.554 0 -5.684 -0.696 -5.684 -3.014 s 5.13 -3.014 5.684 -3.014 c 1.662 0 3.014 1.352 3.014 3.014 C 69.112 27.166 67.761 28.518 66.099 28.518 z M 62.598 25.503 c 0.716 0.465 2.642 1.014 3.501 1.014 c 0.559 0 1.014 -0.455 1.014 -1.014 s -0.455 -1.014 -1.014 -1.014 C 65.239 24.49 63.313 25.039 62.598 25.503 z" style="stroke: none; stroke-width: 1; stroke-dasharray: none; stroke-linecap: butt; stroke-linejoin: miter; stroke-miterlimit: 10; fill: rgb(255,255,255); fill-rule: nonzero; opacity: 1;" transform=" matrix(1 0 0 1 0 0) " stroke-linecap="round" />
	<path d="M 39.819 70.672 c -5.623 0 -10.197 -4.574 -10.197 -10.197 c 0 -0.367 0.024 -0.752 0.072 -1.178 l 1.987 0.229 c -0.036 0.312 -0.06 0.627 -0.06 0.949 c 0 4.52 3.677 8.197 8.197 8.197 s 8.197 -3.678 8.197 -8.197 c 0 -0.322 -0.023 -0.638 -0.059 -0.949 l 1.986 -0.229 c 0.049 0.423 0.072 0.809 0.072 1.178 C 50.016 66.098 45.441 70.672 39.819 70.672 z" style="stroke: none; stroke-width: 1; stroke-dasharray: none; stroke-linecap: butt; stroke-linejoin: miter; stroke-miterlimit: 10; fill: rgb(255,255,255); fill-rule: nonzero; opacity: 1;" transform=" matrix(1 0 0 1 0 0) " stroke-linecap="round" />
	<path d="M 39.819 66.106 c -3.105 0 -5.632 -2.526 -5.632 -5.632 c 0 -0.424 0.052 -0.859 0.154 -1.293 l 1.946 0.459 c -0.067 0.283 -0.101 0.564 -0.101 0.834 c 0 2.003 1.629 3.632 3.632 3.632 s 3.632 -1.629 3.632 -3.632 c 0 -0.27 -0.034 -0.551 -0.101 -0.834 l 1.946 -0.459 c 0.103 0.434 0.154 0.869 0.154 1.293 C 45.451 63.58 42.924 66.106 39.819 66.106 z" style="stroke: none; stroke-width: 1; stroke-dasharray: none; stroke-linecap: butt; stroke-linejoin: miter; stroke-miterlimit: 10; fill: rgb(255,255,255); fill-rule: nonzero; opacity: 1;" transform=" matrix(1 0 0 1 0 0) " stroke-linecap="round" />
	<path d="M 79.803 70.672 c -5.372 0 -9.837 -4.203 -10.166 -9.568 l 1.996 -0.123 c 0.265 4.313 3.853 7.691 8.17 7.691 c 4.52 0 8.197 -3.678 8.197 -8.197 c 0 -1.692 -0.517 -3.321 -1.495 -4.71 l 1.635 -1.152 c 1.217 1.729 1.86 3.755 1.86 5.862 C 90 66.098 85.426 70.672 79.803 70.672 z" style="stroke: none; stroke-width: 1; stroke-dasharray: none; stroke-linecap: butt; stroke-linejoin: miter; stroke-miterlimit: 10; fill: rgb(255,255,255); fill-rule: nonzero; opacity: 1;" transform=" matrix(1 0 0 1 0 0) " stroke-linecap="round" />
	<path d="M 68.9 60.411 H 27.18 c -1.3 0 -2.52 -0.638 -3.262 -1.705 c -0.742 -1.068 -0.914 -2.434 -0.46 -3.651 l 3.623 -9.737 c 1.103 -2.966 3.971 -4.959 7.136 -4.959 h 12.578 c 2.657 0 4.818 2.161 4.818 4.818 v 4.352 c 0 1.194 0.972 2.166 2.165 2.166 h 9.435 c 0.741 0 1.437 -0.328 1.907 -0.901 c 0.479 -0.583 0.664 -1.341 0.508 -2.078 l -3.7 -17.48 c -0.365 -1.72 0.097 -3.462 1.267 -4.78 l 1.496 1.328 c -0.744 0.837 -1.038 1.944 -0.806 3.037 l 3.7 17.481 c 0.282 1.336 -0.054 2.707 -0.92 3.762 c -0.851 1.037 -2.109 1.632 -3.452 1.632 h -9.435 c -2.297 0 -4.165 -1.869 -4.165 -4.166 v -4.352 c 0 -1.554 -1.265 -2.818 -2.818 -2.818 H 34.216 c -2.333 0 -4.448 1.469 -5.262 3.657 l -3.623 9.736 c -0.229 0.614 -0.145 1.274 0.229 1.813 c 0.374 0.538 0.964 0.847 1.62 0.847 H 68.9 V 60.411 z" style="stroke: none; stroke-width: 1; stroke-dasharray: none; stroke-linecap: butt; stroke-linejoin: miter; stroke-miterlimit: 10; fill: rgb(255,255,255); fill-rule: nonzero; opacity: 1;" transform=" matrix(1 0 0 1 0 0) " stroke-linecap="round" />
	<rect x="67.77" y="26.29" rx="0" ry="0" width="2" height="3.85" style="stroke: none; stroke-width: 1; stroke-dasharray: none; stroke-linecap: butt; stroke-linejoin: miter; stroke-miterlimit: 10; fill: rgb(255,255,255); fill-rule: nonzero; opacity: 1;" transform=" matrix(0.8687 -0.4953 0.4953 0.8687 -4.9454 37.769) "/>
	<rect x="75.58" y="34.29" rx="0" ry="0" width="2" height="15.23" style="stroke: none; stroke-width: 1; stroke-dasharray: none; stroke-linecap: butt; stroke-linejoin: miter; stroke-miterlimit: 10; fill: rgb(255,255,255); fill-rule: nonzero; opacity: 1;" transform=" matrix(0.8687 -0.4953 0.4953 0.8687 -10.7043 43.4321) "/>
	<path d="M 19.18 52.595 H 7.991 c -0.552 0 -1 -0.447 -1 -1 s 0.448 -1 1 -1 H 19.18 c 0.552 0 1 0.447 1 1 S 19.732 52.595 19.18 52.595 z" style="stroke: none; stroke-width: 1; stroke-dasharray: none; stroke-linecap: butt; stroke-linejoin: miter; stroke-miterlimit: 10; fill: rgb(255,255,255); fill-rule: nonzero; opacity: 1;" transform=" matrix(1 0 0 1 0 0) " stroke-linecap="round" />
	<path d="M 17.626 44.778 H 1 c -0.552 0 -1 -0.448 -1 -1 s 0.448 -1 1 -1 h 16.626 c 0.552 0 1 0.448 1 1 S 18.178 44.778 17.626 44.778 z" style="stroke: none; stroke-width: 1; stroke-dasharray: none; stroke-linecap: butt; stroke-linejoin: miter; stroke-miterlimit: 10; fill: rgb(255,255,255); fill-rule: nonzero; opacity: 1;" transform=" matrix(1 0 0 1 0 0) " stroke-linecap="round" />
	<path d="M 14.519 36.962 H 1 c -0.552 0 -1 -0.448 -1 -1 s 0.448 -1 1 -1 h 13.519 c 0.552 0 1 0.448 1 1 S 15.071 36.962 14.519 36.962 z" style="stroke: none; stroke-width: 1; stroke-dasharray: none; stroke-linecap: butt; stroke-linejoin: miter; stroke-miterlimit: 10; fill: rgb(255,255,255); fill-rule: nonzero; opacity: 1;" transform=" matrix(1 0 0 1 0 0) " stroke-linecap="round" />
	<path d="M 14.519 29.145 H 7.991 c -0.552 0 -1 -0.448 -1 -1 s 0.448 -1 1 -1 h 6.528 c 0.552 0 1 0.448 1 1 S 15.071 29.145 14.519 29.145 z" style="stroke: none; stroke-width: 1; stroke-dasharray: none; stroke-linecap: butt; stroke-linejoin: miter; stroke-miterlimit: 10; fill: rgb(255,255,255); fill-rule: nonzero; opacity: 1;" transform=" matrix(1 0 0 1 0 0) " stroke-linecap="round" />
</g>
</svg>